<?xml version="1.0" encoding="UTF-8" standalone="no"?>
<!-- Created with Inkscape (http://www.inkscape.org/) -->

<svg
   xmlns:dc="http://purl.org/dc/elements/1.1/"
   xmlns:cc="http://creativecommons.org/ns#"
   xmlns:rdf="http://www.w3.org/1999/02/22-rdf-syntax-ns#"
   xmlns:svg="http://www.w3.org/2000/svg"
   xmlns="http://www.w3.org/2000/svg"
   xmlns:sodipodi="http://sodipodi.sourceforge.net/DTD/sodipodi-0.dtd"
   xmlns:inkscape="http://www.inkscape.org/namespaces/inkscape"
   width="31.587381mm"
   height="34.441391mm"
   viewBox="0 0 111.92379 122.03642"
   id="svg2"
   version="1.1"
   inkscape:version="0.91 r13725"
   sodipodi:docname="Closed_Hand_thenounproject_blank.svg">
  <defs
     id="defs4" />
  <sodipodi:namedview
     id="base"
     pagecolor="#ffffff"
     bordercolor="#666666"
     borderopacity="1.0"
     inkscape:pageopacity="0.0"
     inkscape:pageshadow="2"
     inkscape:zoom="1.4"
     inkscape:cx="-16.290597"
     inkscape:cy="-107.1127"
     inkscape:document-units="px"
     inkscape:current-layer="layer1"
     showgrid="false"
     fit-margin-top="1"
     fit-margin-left="1"
     fit-margin-right="1"
     fit-margin-bottom="1"
     inkscape:window-width="1920"
     inkscape:window-height="1028"
     inkscape:window-x="0"
     inkscape:window-y="24"
     inkscape:window-maximized="1" />
  <metadata
     id="metadata7">
    <rdf:RDF>
      <cc:Work
         rdf:about="">
        <dc:format>image/svg+xml</dc:format>
        <dc:type
           rdf:resource="http://purl.org/dc/dcmitype/StillImage" />
        <dc:title></dc:title>
      </cc:Work>
    </rdf:RDF>
  </metadata>
  <g
     inkscape:label="Layer 1"
     inkscape:groupmode="layer"
     id="layer1"
     transform="translate(-401.13065,-308.51195)">
    <path
       style="fill:#ffffff;opacity:1;fill-opacity:1;stroke:#000000;stroke-opacity:1"
       d="m 428.21429,422.34627 c 0,-4.15599 -2.02375,-7.2846 -13.53938,-20.93119 -10.78434,-12.77996 -11.402,-14.88092 -11.4285,-38.8743 -0.0203,-18.40445 0.24464,-21.06361 2.46112,-24.69893 2.57013,-4.21533 9.2262,-9.0333 12.50676,-9.05296 1.13394,-0.007 2.61605,-2.34802 3.75,-5.92373 3.36286,-10.60423 14.3236,-14.69177 23.75,-8.85698 2.81338,1.74145 6.0097,2.60079 8.95477,2.40752 4.77653,-0.31345 10.695,2.06577 13.47683,5.41766 0.96977,1.16851 3.60302,1.95742 6.53352,1.95742 5.19606,0 10.77078,2.29446 13.46648,5.54258 0.89347,1.07658 3.53265,1.95742 5.86481,1.95742 3.08401,0 5.51352,1.16598 8.90945,4.27587 l 4.66913,4.27586 0.39864,20.10795 c 0.46059,23.23279 -0.47702,27.8241 -9.24878,45.28973 -3.79258,7.55148 -5.52485,12.57618 -5.52485,16.02561 l 0,5.02498 -32.5,0 -32.5,0 0,-3.94451 z m 57.5,-5.71957 c 0,-1.19025 3.23437,-8.92462 7.1875,-17.1875 l 7.1875,-15.02342 0.39553,-20.22946 c 0.37272,-19.06186 0.24647,-20.37854 -2.1875,-22.8125 -3.2611,-3.2611 -6.87521,-3.29087 -10.08303,-0.083 l -2.5,2.5 0,-3.18182 c 0,-1.75 -1.38069,-4.5625 -3.06819,-6.25 -4.05918,-4.05918 -9.80445,-4.05918 -13.86363,0 l -3.06818,3.06818 0,-3.75 c 0,-8.62753 -10.78109,-12.96891 -16.93182,-6.81818 -2.67611,2.6761 -3.06818,2.77751 -3.06818,0.79358 0,-3.89894 -4.84255,-8.86176 -8.647,-8.86176 -6.81087,0 -8.16023,3.40092 -8.853,22.31308 l -0.625,17.06192 -3.125,0 c -3.06773,0 -3.13162,-0.20048 -3.48617,-10.9375 -0.4018,-12.16802 -1.59359,-13.47138 -7.19565,-7.86932 -2.99608,2.99608 -3.06818,3.52773 -3.06818,22.62359 0,22.97538 0.0188,23.032 12.62853,38.11273 4.86119,5.81377 9.73763,12.39862 10.83652,14.633 l 1.99798,4.0625 24.76848,0 c 22.65357,0 24.76849,-0.18479 24.76849,-2.16408 z m -9.45945,-54.48024 c -0.38405,-1.00082 -0.52217,-4.27465 -0.30692,-7.27517 0.35019,-4.88151 0.72017,-5.45551 3.51637,-5.45551 2.95455,0 3.125,0.375 3.125,6.875 0,6.182 -0.28407,6.91534 -2.81809,7.27517 -1.61384,0.22917 -3.11648,-0.37742 -3.51636,-1.41949 z m -14.99214,-2.47951 c -0.37973,-0.98954 -0.51783,-4.82587 -0.30691,-8.52517 0.35572,-6.2388 0.60986,-6.726 3.5085,-6.726 3.01282,0 3.125,0.29167 3.125,8.125 0,7.47903 -0.22405,8.15681 -2.81809,8.52517 -1.60188,0.22747 -3.11605,-0.3763 -3.5085,-1.399 z m -17.5,-2.5 c -0.37972,-0.98954 -0.51783,-4.82587 -0.30691,-8.52517 0.35572,-6.2388 0.60986,-6.726 3.5085,-6.726 3.01282,0 3.125,0.29167 3.125,8.125 0,7.47903 -0.22405,8.15681 -2.81809,8.52517 -1.60188,0.22747 -3.11605,-0.3763 -3.5085,-1.399 z"
       id="path4166"
       inkscape:connector-curvature="0" />
  </g>
</svg>
