<?xml version="1.0" encoding="UTF-8" standalone="no"?>
<svg
   xmlns:dc="http://purl.org/dc/elements/1.1/"
   xmlns:cc="http://creativecommons.org/ns#"
   xmlns:rdf="http://www.w3.org/1999/02/22-rdf-syntax-ns#"
   xmlns:svg="http://www.w3.org/2000/svg"
   xmlns="http://www.w3.org/2000/svg"
   xmlns:sodipodi="http://sodipodi.sourceforge.net/DTD/sodipodi-0.dtd"
   xmlns:inkscape="http://www.inkscape.org/namespaces/inkscape"
   height="200"
   width="200"
   fill="#000000"
   version="1.1"
   x="0px"
   y="0px"
   viewBox="0 0 100 100"
   style="enable-background:new 0 0 100 100;"
   xml:space="preserve"
   id="svg76"
   sodipodi:docname="replace.svg"
   inkscape:version="0.92.2 (5c3e80d, 2017-08-06)"><metadata
     id="metadata82"><rdf:RDF><cc:Work
         rdf:about=""><dc:format>image/svg+xml</dc:format><dc:type
           rdf:resource="http://purl.org/dc/dcmitype/StillImage" /><dc:title></dc:title></cc:Work></rdf:RDF></metadata><defs
     id="defs80" /><sodipodi:namedview
     pagecolor="#ffffff"
     bordercolor="#666666"
     borderopacity="1"
     objecttolerance="10"
     gridtolerance="10"
     guidetolerance="10"
     inkscape:pageopacity="0"
     inkscape:pageshadow="2"
     inkscape:window-width="866"
     inkscape:window-height="480"
     id="namedview78"
     showgrid="false"
     inkscape:zoom="1.18"
     inkscape:cx="100"
     inkscape:cy="100"
     inkscape:window-x="0"
     inkscape:window-y="27"
     inkscape:window-maximized="0"
     inkscape:current-layer="svg76" /><polygon
     points="85,30 65,30 60,30 60,25 60,5 40,5 40,60 85,60 "
     id="polygon66" /><polygon
     points="65,5 65,25 85,25 "
     id="polygon68" /><polygon
     points="35,40 15,40 15,95 60,95 60,65 40,65 35,65 35,60 "
     id="polygon70" /><path
     d="M85,80L85,80v-5h5L80,65L70,75h5v5c0,2.761-2.239,5-5,5h-5v10h5C78.284,95,85,88.284,85,80z"
     id="path72" /><path
     d="M30,25h-5v-5c0-2.761,2.239-5,5-5h5V5h-5c-8.284,0-15,6.716-15,15v5h-5l10,10L30,25z"
     id="path74" /></svg>