<?xml version="1.0" encoding="UTF-8" standalone="no"?>
<svg
   xmlns:dc="http://purl.org/dc/elements/1.1/"
   xmlns:cc="http://creativecommons.org/ns#"
   xmlns:rdf="http://www.w3.org/1999/02/22-rdf-syntax-ns#"
   xmlns:svg="http://www.w3.org/2000/svg"
   xmlns="http://www.w3.org/2000/svg"
   xmlns:sodipodi="http://sodipodi.sourceforge.net/DTD/sodipodi-0.dtd"
   xmlns:inkscape="http://www.inkscape.org/namespaces/inkscape"
   width="45.012836pt"
   height="42.602711pt"
   viewBox="0 0 45.012836 42.602711"
   xml:space="preserve"
   id="svg3397"
   version="1.1"
   inkscape:version="0.91 r13725"
   sodipodi:docname="High-contrast-edit-clear.svg"><metadata
     id="metadata3421"><rdf:RDF><cc:Work
         rdf:about=""><dc:format>image/svg+xml</dc:format><dc:type
           rdf:resource="http://purl.org/dc/dcmitype/StillImage" /><dc:title></dc:title></cc:Work></rdf:RDF></metadata><defs
     id="defs3419" /><sodipodi:namedview
     pagecolor="#ffffff"
     bordercolor="#666666"
     borderopacity="1"
     objecttolerance="10"
     gridtolerance="10"
     guidetolerance="10"
     inkscape:pageopacity="0"
     inkscape:pageshadow="2"
     inkscape:window-width="1920"
     inkscape:window-height="1004"
     id="namedview3417"
     showgrid="false"
     fit-margin-top="0"
     fit-margin-left="0"
     fit-margin-right="0"
     fit-margin-bottom="0"
     inkscape:zoom="13.75"
     inkscape:cx="28.412839"
     inkscape:cy="26.34055"
     inkscape:window-x="0"
     inkscape:window-y="24"
     inkscape:window-maximized="1"
     inkscape:current-layer="svg3397" /><g
     id="Layer_x0020_4"
     style="clip-rule:nonzero;fill-rule:nonzero;stroke:#000000;stroke-miterlimit:4"
     transform="translate(-1.2697285,-2.4697285)"><g
       style="stroke:none"
       id="g3400"><path
         style="stroke:#ffffff;stroke-width:6.84859991;stroke-linejoin:round"
         d="m 42.8,29.9 c -0.2,-0.7 -0.9,-1.2 -1.7,-1.1 0,0 -1.8,0.3 -3.7,0.3 -3.2,0 -3.8,-0.7 -3.8,-0.8 0,0 0,0 0,-0.1 L 27.4,20.1 29.3,19 c 0,-0.1 -0.1,-0.1 -0.1,-0.2 L 28.3,17.2 C 27.3,15.5 25.1,15 23.4,16 l -5.6,3.4 c 0,0 0,-0.1 0,-0.1 L 10.3,7.3 C 9.4,5.9 7.6,5.4 6.1,6.3 4.7,7.2 4.2,9 5.1,10.5 l 7.4,12.2 c 0,0 0,0 0,0.1 l -5.6,3.4 c -1.7,1 -2.2,3.2 -1.2,4.9 l 0.9,1.6 c 0,0.1 0.1,0.1 0.1,0.2 l 2,-1.2 C 10.6,34 15,40 15,40 c 1.3,2.1 4.2,1.8 5.7,1.2 0,0 0.1,0 0.1,0 L 42,31.8 c 0.7,-0.3 1,-1.1 0.8,-1.8 z"
         id="path3402"
         inkscape:connector-curvature="0" /><path
         style="fill:#ffffff;stroke:#000000;stroke-width:3.02729988;stroke-linecap:round;stroke-linejoin:round"
         d="m 25.3,20 -16,9.7 7,9.5 c 1,1.8 3.9,0.7 3.9,0.7 l 21.2,-9.5 c 0,0 -7.4,1.2 -9,-1.1 L 25.3,20 Z"
         id="path3404"
         inkscape:connector-curvature="0" /><path
         d="m 17.7,19.6 c 0.9,1.4 0.4,3.3 -1,4.2 -1.4,0.9 -3.3,0.4 -4.2,-1 L 5.2,10.5 C 4.3,9.1 4.8,7.2 6.2,6.3 7.6,5.4 9.5,5.9 10.4,7.3 l 7.4,12.2 z"
         id="path3406"
         inkscape:connector-curvature="0" /><path
         d="m 30.5,20.9 -2.2,-3.4 c -1,-1.7 -3.2,-2.2 -4.9,-1.2 L 7,26.2 c -1.7,1 -2.2,3.2 -1.2,4.9 L 8,34.5 30.6,20.8 Z"
         id="path3408"
         inkscape:connector-curvature="0" /><path
         style="fill:none;stroke:#000000;stroke-width:1.71210003;stroke-linecap:round;stroke-linejoin:round"
         d="m 32.3,33.6 c 0,0 -3.5,1.8 -5.5,-1.3"
         id="path3410"
         inkscape:connector-curvature="0" /><path
         style="fill:none;stroke:#000000;stroke-width:1.71210003;stroke-linecap:round;stroke-linejoin:round"
         d="m 21.7,34.9 c 2.2,3.3 4,2 4,2"
         id="path3412"
         inkscape:connector-curvature="0" /></g></g><g
     id="crop_x0020_marks"
     style="clip-rule:nonzero;fill-rule:nonzero;stroke:#000000;stroke-miterlimit:4"
     transform="translate(-1.2697285,-2.4697285)"><path
       style="fill:none;stroke:none"
       d="M 48,48 0,48 0,0 48,0 48,48 Z"
       id="path3415"
       inkscape:connector-curvature="0" /></g></svg>