<?xml version="1.0" encoding="UTF-8" standalone="no"?>
<svg
   xmlns:dc="http://purl.org/dc/elements/1.1/"
   xmlns:cc="http://creativecommons.org/ns#"
   xmlns:rdf="http://www.w3.org/1999/02/22-rdf-syntax-ns#"
   xmlns:svg="http://www.w3.org/2000/svg"
   xmlns="http://www.w3.org/2000/svg"
   xmlns:sodipodi="http://sodipodi.sourceforge.net/DTD/sodipodi-0.dtd"
   xmlns:inkscape="http://www.inkscape.org/namespaces/inkscape"
   width="48pt"
   height="48pt"
   viewBox="0 0 48 48"
   xml:space="preserve"
   id="svg2"
   version="1.1"
   inkscape:version="0.91 r13725"
   sodipodi:docname="High-contrast-system-run.svg"><metadata
     id="metadata18"><rdf:RDF><cc:Work
         rdf:about=""><dc:format>image/svg+xml</dc:format><dc:type
           rdf:resource="http://purl.org/dc/dcmitype/StillImage" /><dc:title></dc:title></cc:Work></rdf:RDF></metadata><defs
     id="defs16" /><sodipodi:namedview
     pagecolor="#ffffff"
     bordercolor="#666666"
     borderopacity="1"
     objecttolerance="10"
     gridtolerance="10"
     guidetolerance="10"
     inkscape:pageopacity="0"
     inkscape:pageshadow="2"
     inkscape:window-width="640"
     inkscape:window-height="480"
     id="namedview14"
     showgrid="false"
     inkscape:zoom="3.9333333"
     inkscape:cx="30"
     inkscape:cy="30"
     inkscape:window-x="0"
     inkscape:window-y="24"
     inkscape:window-maximized="0"
     inkscape:current-layer="svg2" /><g
     id="Layer_x0020_4"
     style="fill-rule:nonzero;clip-rule:nonzero;stroke:#000000;stroke-miterlimit:4;"><g
       id="g5"><path
         style="fill:none;stroke:#FFFFFF;stroke-width:7.4578;stroke-linejoin:round;"
         d="M42.8,22.9l-2.4-8.1l-5.6,1.6c-1.1-1.6-2.7-3-4.4-4l0.9-5.5l-9.2-1.2l-0.8,5.3c-0.3,0.1-0.7,0.2-1,0.3c-1.2,0.3-2.3,0.9-3.3,1.5l-4.3-3.3L7,16.4l4.5,3.5c-0.4,1.1-0.6,2.3-0.6,3.6l-5.6,1.6l2.4,8.1l5.6-1.6c1.1,1.6,2.7,3,4.4,4l-0.9,5.5     l9.2,1.2l0.8-5.3c0.3-0.1,0.7-0.2,1-0.3c1.2-0.3,2.3-0.9,3.3-1.5l4.3,3.3l5.7-6.9l-4.5-3.5c0.4-1.1,0.6-2.3,0.6-3.6l5.6-1.6z M25.3,28.8c-2.8,0.8-5.8-0.8-6.7-3.6s0.8-5.8,3.6-6.7c2.8-0.8,5.8,0.8,6.7,3.6c0.8,2.8-0.8,5.8-3.6,6.7z"
         id="path7" /><path
         style="stroke:none;"
         d="M42.8,22.9l-2.4-8.1l-5.6,1.6c-1.1-1.6-2.7-3-4.4-4l0.9-5.5l-9.2-1.2l-0.8,5.3c-0.3,0.1-0.7,0.2-1,0.3c-1.2,0.3-2.3,0.9-3.3,1.5l-4.3-3.3L7,16.4l4.5,3.5c-0.4,1.1-0.6,2.3-0.6,3.6l-5.6,1.6l2.4,8.1l5.6-1.6c1.1,1.6,2.7,3,4.4,4l-0.9,5.5     l9.2,1.2l0.8-5.3c0.3-0.1,0.7-0.2,1-0.3c1.2-0.3,2.3-0.9,3.3-1.5l4.3,3.3l5.7-6.9l-4.5-3.5c0.4-1.1,0.6-2.3,0.6-3.6l5.6-1.6z M25.3,28.8c-2.8,0.8-5.8-0.8-6.7-3.6s0.8-5.8,3.6-6.7c2.8-0.8,5.8,0.8,6.7,3.6c0.8,2.8-0.8,5.8-3.6,6.7z"
         id="path9" /></g></g><g
     id="crop_x0020_marks"
     style="fill-rule:nonzero;clip-rule:nonzero;stroke:#000000;stroke-miterlimit:4;"><path
       style="fill:none;stroke:none;"
       d="M48,48H0V0h48v48z"
       id="path12" /></g></svg>