<?xml version="1.0" encoding="UTF-8" standalone="no"?>
<!DOCTYPE svg PUBLIC "-//W3C//DTD SVG 20010904//EN" "http://www.w3.org/TR/2001/REC-SVG-20010904/DTD/svg10.dtd">
<!-- Created with Inkscape (http://www.inkscape.org/) -->
<svg id="svg3261" xmlns="http://www.w3.org/2000/svg" height="24pt" width="24pt" xmlns:xlink="http://www.w3.org/1999/xlink">
 <metadata>
  <rdf:RDF xmlns:rdf="http://www.w3.org/1999/02/22-rdf-syntax-ns#" xmlns:cc="http://web.resource.org/cc/" xmlns:dc="http://purl.org/dc/elements/1.1/">
   <cc:Work rdf:about="">
    <dc:title>Etiquette Icons</dc:title>
    <dc:description/>
    <dc:subject>
     <rdf:Bag>
      <rdf:li>hash</rdf:li>
      <rdf:li/>
      <rdf:li>action</rdf:li>
      <rdf:li>computer</rdf:li>
      <rdf:li>icons</rdf:li>
      <rdf:li>theme</rdf:li>
     </rdf:Bag>
    </dc:subject>
    <dc:publisher>
     <cc:Agent rdf:about="http://www.openclipart.org">
      <dc:title>Andy Fitzsimon</dc:title>
     </cc:Agent>
    </dc:publisher>
    <dc:creator>
     <cc:Agent>
      <dc:title>Andy Fitzsimon</dc:title>
     </cc:Agent>
    </dc:creator>
    <dc:rights>
     <cc:Agent>
      <dc:title>Andy Fitzsimon</dc:title>
     </cc:Agent>
    </dc:rights>
    <dc:date/>
    <dc:format>image/svg+xml</dc:format>
    <dc:type rdf:resource="http://purl.org/dc/dcmitype/StillImage"/>
    <cc:license rdf:resource="http://web.resource.org/cc/PublicDomain"/>
    <dc:language>en</dc:language>
   </cc:Work>
   <cc:License rdf:about="http://web.resource.org/cc/PublicDomain">
    <cc:permits rdf:resource="http://web.resource.org/cc/Reproduction"/>
    <cc:permits rdf:resource="http://web.resource.org/cc/Distribution"/>
    <cc:permits rdf:resource="http://web.resource.org/cc/DerivativeWorks"/>
   </cc:License>
  </rdf:RDF>
 </metadata>
 <defs id="defs3263">
  <linearGradient id="linearGradient2222" y2=".55249" xlink:href="#linearGradient1513" y1="-.10497" x2=".58431" x1="-.10588"/>
  <linearGradient id="linearGradient2316" y2=".52030" y1=".21771" x2=".80392" x1=".47451">
   <stop id="stop2318" stop-color="#d6d6d6" offset="0"/>
   <stop id="stop2322" stop-color="#eaeaea" offset=".25769"/>
   <stop id="stop2320" stop-color="#919191" offset=".70594"/>
   <stop id="stop2321" stop-color="#d2d2d2" offset=".73347"/>
   <stop id="stop2319" stop-color="#a6a6a6" offset="1"/>
  </linearGradient>
  <linearGradient id="linearGradient1513">
   <stop id="stop1514" stop-color="#fff" offset="0"/>
   <stop id="stop1515" stop-color="#fff" stop-opacity="0" offset="1"/>
  </linearGradient>
  <linearGradient id="linearGradient2121" y2="0.443" xlink:href="#linearGradient1513" y1=".27687" x2=".59608" x1=".41569"/>
  <radialGradient id="radialGradient1502" fx=".18039" fy=".47917">
   <stop id="stop1919" stop-opacity=".31638" offset="0"/>
   <stop id="stop1920" stop-opacity=".079096" offset=".5"/>
   <stop id="stop1921" stop-opacity="0" offset="1"/>
  </radialGradient>
 </defs>
 <g id="g3664" fill-rule="evenodd" transform="matrix(1.4859 0 0 1.4859 .037969 -.11509)">
  <path id="path1934" d="m54.439 37.866a12.563 12.563 0 1 0 -25.126 0 12.563 12.563 0 1 0 25.126 0z" transform="matrix(.74091 0 0 .13637 -20.773 12.915)" stroke-width="1pt" fill="url(#radialGradient1502)"/>
  <path id="path2139" d="m5.1124 15.088c2.5318-4.155 11.088-14.236 13.239-14.741 2.114-0.49593 1.775 0.7818 1.141 1.794-0.645 1.029-3.458 6.907-12.687 13.62-1.3705 0.464-1.6926-0.673-1.6926-0.673z" stroke-width=".25" fill="#625b47"/>
  <path id="path2140" d="m0.37663 18.603s6.4391 1.541 6.9583-2.039c0.5192-3.581-1.9917-1.852-3.0638-1.769-1.4947 0.054-2.9655 1.604-3.8945 3.808z" stroke-width=".25" fill="#434343"/>
  <path id="path2230" d="m9.7456 9.468c1.4424-1.666 6.9044-7.8858 8.3754-8.5542 1.439-0.6538 1.589-0.16192 1.38 0.3369-0.209 0.4989-7.502 9.3543-8.332 9.0413-0.829-0.3128-1.4441-0.39-1.4234-0.824z" stroke-width=".125" fill="url(#linearGradient2121)"/>
  <path id="path2141" d="m5.2263 14.482l4.1773-5.2886c0.4688 1.0156 3.2544 1.6546 2.8214 2.1426s-4.3874 4.255-4.8491 4.431c-0.4618 0.176-2.3709-1.093-2.1496-1.285z" stroke-width=".25" fill="url(#linearGradient2316)"/>
  <path id="path2247" d="m0.92111 17.977s1.406-2.97 3.6492-2.713c1.695 0.167 1.5018 0.673 1.5018 0.673s-2.1279 2.298-5.151 2.04z" stroke-width="1pt" fill="url(#linearGradient2222)"/>
 </g>
 <path id="path938" d="m9.3812-16.109c-0.1055-0.085 0.9088 0.204 1.0968 0.25 1.025 0.229 2.056 0.404 3.096 0.549l-0.045 0.675c-1.043-0.14-2.087-0.275-3.128-0.427-0.37-0.056-1.0784-0.031-1.3968-0.278l0.377-0.769z" fill-opacity=".75"/>
</svg>