<?xml version="1.0" encoding="UTF-8" standalone="no"?>
<svg
   xmlns:dc="http://purl.org/dc/elements/1.1/"
   xmlns:cc="http://creativecommons.org/ns#"
   xmlns:rdf="http://www.w3.org/1999/02/22-rdf-syntax-ns#"
   xmlns:svg="http://www.w3.org/2000/svg"
   xmlns="http://www.w3.org/2000/svg"
   xmlns:sodipodi="http://sodipodi.sourceforge.net/DTD/sodipodi-0.dtd"
   xmlns:inkscape="http://www.inkscape.org/namespaces/inkscape"
   height="26"
   version="1.1"
   viewBox="0 0 29 26"
   width="29"
   id="svg2"
   inkscape:version="0.91 r13725"
   sodipodi:docname="Wikiversity-Mooc-Icon-Download_modif.svg">
  <metadata
     id="metadata15">
    <rdf:RDF>
      <cc:Work
         rdf:about="">
        <dc:format>image/svg+xml</dc:format>
        <dc:type
           rdf:resource="http://purl.org/dc/dcmitype/StillImage" />
        <dc:title></dc:title>
      </cc:Work>
    </rdf:RDF>
  </metadata>
  <sodipodi:namedview
     pagecolor="#ffffff"
     bordercolor="#666666"
     borderopacity="1"
     objecttolerance="10"
     gridtolerance="10"
     guidetolerance="10"
     inkscape:pageopacity="0"
     inkscape:pageshadow="2"
     inkscape:window-width="774"
     inkscape:window-height="480"
     id="namedview13"
     showgrid="false"
     inkscape:zoom="7.375"
     inkscape:cx="14"
     inkscape:cy="13"
     inkscape:window-x="0"
     inkscape:window-y="25"
     inkscape:window-maximized="0"
     inkscape:current-layer="svg2"
     fit-margin-top="2"
     fit-margin-left="2"
     fit-margin-right="2"
     fit-margin-bottom="2" />
  <desc
     id="desc6" />
  <defs
     id="defs8" />
  <g
     id="Page-1"
     style="fill:#000000;fill-rule:evenodd;stroke:none;stroke-width:1"
     transform="translate(-2,-3)">
    <g
       id="icon-92-inbox-download"
       style="fill:#000000">
      <path
         d="M 16,16 12.75,12.75 12,13.5 16.5,18 21,13.5 20.25,12.75 17,16 17,5 l -1,0 0,11 0,0 0,0 z m 5,2 6.775024,0 0,0 -4.375,-7 L 18,11 l 0,-1 6,0 5,8 0,1 0,8 -25,0 0,-9 5,-8 6,0 0,1 -5.4000244,0 -4.375,7 L 12,18 l 0,2 c 0,1.104569 0.895858,2 1.997392,2 l 5.005216,0 C 20.105737,22 21,21.11227 21,20 l 0,-2 0,0 z"
         id="inbox-download"
         style="fill:#000000"
         inkscape:connector-curvature="0" />
    </g>
  </g>
</svg>
