<?xml version="1.0" encoding="utf-8"?>
<!-- Generator: Adobe Illustrator 18.1.1, SVG Export Plug-In . SVG Version: 6.00 Build 0)  -->
<svg version="1.1" id="Calque_1" xmlns="http://www.w3.org/2000/svg" xmlns:xlink="http://www.w3.org/1999/xlink" x="0px" y="0px"
	 viewBox="0 0 55 55" enable-background="new 0 0 55 55" xml:space="preserve">
<path fill="#D9DFE8" d="M53.5,55h-52C0.7,55,0,54.3,0,53.5v-52C0,0.7,0.7,0,1.5,0h52C54.3,0,55,0.7,55,1.5v52
	C55,54.3,54.3,55,53.5,55z"/>
<circle fill="#BEA8D1" stroke="#FFFFFF" stroke-width="0.2" stroke-miterlimit="10" cx="34.3" cy="28.3" r="11.7"/>
<circle fill="#A8D3B0" stroke="#FFFFFF" stroke-width="0.2" stroke-miterlimit="10" cx="14.8" cy="22.2" r="7.6"/>
<circle fill="#BEA8D1" stroke="#FFFFFF" stroke-width="0.2" stroke-miterlimit="10" cx="11.3" cy="41.6" r="6.5"/>
<circle fill="#BEA8D1" stroke="#FFFFFF" stroke-width="0.2" stroke-miterlimit="10" cx="48.3" cy="45.2" r="5.5"/>
<circle fill="#BEA8D1" stroke="#FFFFFF" stroke-width="0.2" stroke-miterlimit="10" cx="48.9" cy="6.8" r="3.5"/>
<circle fill="#A8D3B0" stroke="#FFFFFF" stroke-width="0.2" stroke-miterlimit="10" cx="27.5" cy="5.9" r="3.8"/>
<circle fill="#A8D3B0" stroke="#FFFFFF" stroke-width="0.2" stroke-miterlimit="10" cx="32.9" cy="46.6" r="3.1"/>
<circle fill="#A8D3B0" stroke="#FFFFFF" stroke-width="0.2" stroke-miterlimit="10" cx="46.2" cy="17.7" r="3.1"/>
<circle fill="#A8D3B0" stroke="#FFFFFF" stroke-width="0.2" stroke-miterlimit="10" cx="38.4" cy="8.7" r="2"/>
<circle fill="#A6BDDB" stroke="#FFFFFF" stroke-width="0.2" stroke-miterlimit="10" cx="9.9" cy="11.4" r="2"/>
<circle fill="#A6BCDA" stroke="#FFFFFF" stroke-width="0.2" stroke-miterlimit="10" cx="2.8" cy="23.8" r="2"/>
<circle fill="#A6BDDB" stroke="#FFFFFF" stroke-width="0.2" stroke-miterlimit="10" cx="26.5" cy="41.5" r="2"/>
<circle fill="#A6BCDA" stroke="#FFFFFF" stroke-width="0.2" stroke-miterlimit="10" cx="25.4" cy="27.8" r="2"/>
<circle fill="#A6BCDA" stroke="#FFFFFF" stroke-width="0.2" stroke-miterlimit="10" cx="36.6" cy="28.8" r="2"/>
<circle fill="#A6BCDA" stroke="#FFFFFF" stroke-width="0.2" stroke-miterlimit="10" cx="44.2" cy="26.9" r="1.4"/>
<circle fill="#A8D3B0" stroke="#FFFFFF" stroke-width="0.2" stroke-miterlimit="10" cx="47.3" cy="35.9" r="1.4"/>
<circle fill="#A8D3B0" stroke="#FFFFFF" stroke-width="0.2" stroke-miterlimit="10" cx="53.2" cy="28" r="1.4"/>
<circle fill="#A6BCDA" stroke="#FFFFFF" stroke-width="0.2" stroke-miterlimit="10" cx="52.9" cy="32.2" r="1.2"/>
<circle fill="#A6BCDA" stroke="#FFFFFF" stroke-width="0.2" stroke-miterlimit="10" cx="29.6" cy="12.2" r="1.2"/>
<circle fill="#A6BCDA" stroke="#FFFFFF" stroke-width="0.2" stroke-miterlimit="10" cx="53" cy="1.8" r="1.2"/>
<circle fill="#A6BCDA" stroke="#FFFFFF" stroke-width="0.2" stroke-miterlimit="10" cx="30.2" cy="3.5" r="1.2"/>
<circle fill="#A6BDDB" stroke="#FFFFFF" stroke-width="0.2" stroke-miterlimit="10" cx="17" cy="10.2" r="3"/>
<circle fill="#A6BDDB" stroke="#FFFFFF" stroke-width="0.2" stroke-miterlimit="10" cx="15.1" cy="30.6" r="3"/>
<circle fill="#BEA8D1" stroke="#FFFFFF" stroke-width="0.2" stroke-miterlimit="10" cx="20.5" cy="48.2" r="4.8"/>
<circle fill="#A6BCDA" stroke="#FFFFFF" stroke-width="0.2" stroke-miterlimit="10" cx="3.7" cy="48.8" r="2.3"/>
<circle fill="#A6BCDA" stroke="#FFFFFF" stroke-width="0.2" stroke-miterlimit="10" cx="3.5" cy="52.6" r="1.3"/>
<circle fill="#A6BDDB" stroke="#FFFFFF" stroke-width="0.2" stroke-miterlimit="10" cx="16.8" cy="53.1" r="1.3"/>
<circle fill="#A6BDDB" stroke="#FFFFFF" stroke-width="0.2" stroke-miterlimit="10" cx="27.9" cy="52.6" r="1.3"/>
<circle fill="#A6BDDB" stroke="#FFFFFF" stroke-width="0.2" stroke-miterlimit="10" cx="40.2" cy="52.4" r="0.9"/>
<circle fill="#A8D3B0" stroke="#FFFFFF" stroke-width="0.2" stroke-miterlimit="10" cx="42.8" cy="44.7" r="1.9"/>
<circle fill="#A8D3B0" stroke="#FFFFFF" stroke-width="0.2" stroke-miterlimit="10" cx="52.6" cy="42.8" r="2.3"/>
<circle fill="#A6BDDB" stroke="#FFFFFF" stroke-width="0.2" stroke-miterlimit="10" cx="52.3" cy="52" r="1.4"/>
<circle fill="#A6BDDB" stroke="#FFFFFF" stroke-width="0.2" stroke-miterlimit="10" cx="48" cy="52.2" r="1"/>
<circle fill="#A6BCDA" stroke="#FFFFFF" stroke-width="0.2" stroke-miterlimit="10" cx="23.8" cy="16.5" r="1"/>
<circle fill="#A6BCDA" stroke="#FFFFFF" stroke-width="0.2" stroke-miterlimit="10" cx="11.3" cy="7.2" r="1"/>
<circle fill="#A6BCDA" stroke="#FFFFFF" stroke-width="0.2" stroke-miterlimit="10" cx="5.9" cy="7.7" r="1"/>
<circle fill="#A6BCDA" stroke="#FFFFFF" stroke-width="0.2" stroke-miterlimit="10" cx="3.2" cy="12.2" r="2.2"/>
<circle fill="#A6BDDB" stroke="#FFFFFF" stroke-width="0.2" stroke-miterlimit="10" cx="8.1" cy="3.1" r="2.5"/>
<circle fill="#A6BCDA" stroke="#FFFFFF" stroke-width="0.2" stroke-miterlimit="10" cx="24.6" cy="22.8" r="1.4"/>
<circle fill="#A8D3B0" stroke="#FFFFFF" stroke-width="0.2" stroke-miterlimit="10" cx="8" cy="28.9" r="4.1"/>
<path fill="none" stroke="#FFFFFF" stroke-width="0.25" stroke-miterlimit="10" d="M53.5,55h-52C0.7,55,0,54.3,0,53.5v-52
	C0,0.7,0.7,0,1.5,0h52C54.3,0,55,0.7,55,1.5v52C55,54.3,54.3,55,53.5,55z"/>
<path fill="none" stroke="#FFFFFF" stroke-width="0.5" stroke-miterlimit="10" d="M53.5,55h-52C0.7,55,0,54.3,0,53.5v-52
	C0,0.7,0.7,0,1.5,0h52C54.3,0,55,0.7,55,1.5v52C55,54.3,54.3,55,53.5,55z"/>
<rect x="27.6" y="36.9" fill="#666262" width="23.7" height="14.5"/>
<text transform="matrix(1 0 0 1 27.7284 43.5718)"><tspan x="0" y="0" fill="#FFFFFF" font-family="'Arial-BoldMT'" font-size="8">PROP</tspan><tspan x="0.9" y="7" fill="#FFFFFF" font-family="'Arial-BoldMT'" font-size="8">TYPO</tspan></text>
</svg>
