<?xml version="1.0" encoding="UTF-8" standalone="no"?>
<svg
   xmlns:dc="http://purl.org/dc/elements/1.1/"
   xmlns:cc="http://creativecommons.org/ns#"
   xmlns:rdf="http://www.w3.org/1999/02/22-rdf-syntax-ns#"
   xmlns:svg="http://www.w3.org/2000/svg"
   xmlns="http://www.w3.org/2000/svg"
   xmlns:sodipodi="http://sodipodi.sourceforge.net/DTD/sodipodi-0.dtd"
   xmlns:inkscape="http://www.inkscape.org/namespaces/inkscape"
   width="34.34483"
   height="107.37932"
   viewBox="0 0 34.344829 107.37932"
   id="svg2"
   version="1.1"
   inkscape:version="0.91 r13725"
   sodipodi:docname="3_dots_ico.svg">
  <metadata
     id="metadata10">
    <rdf:RDF>
      <cc:Work
         rdf:about="">
        <dc:format>image/svg+xml</dc:format>
        <dc:type
           rdf:resource="http://purl.org/dc/dcmitype/StillImage" />
        <dc:title></dc:title>
      </cc:Work>
    </rdf:RDF>
  </metadata>
  <defs
     id="defs8" />
  <sodipodi:namedview
     pagecolor="#ffffff"
     bordercolor="#666666"
     borderopacity="1"
     objecttolerance="10"
     gridtolerance="10"
     guidetolerance="10"
     inkscape:pageopacity="0"
     inkscape:pageshadow="2"
     inkscape:window-width="2320"
     inkscape:window-height="1323"
     id="namedview6"
     showgrid="false"
     fit-margin-top="5"
     fit-margin-left="5"
     fit-margin-right="5"
     fit-margin-bottom="5"
     inkscape:zoom="1"
     inkscape:cx="33.801"
     inkscape:cy="-44.796136"
     inkscape:window-x="0"
     inkscape:window-y="24"
     inkscape:window-maximized="1"
     inkscape:current-layer="svg2" />
  <path
     d="m 17.172414,78.03449 c 3.651726,0 6.086208,1.21725 8.520693,3.65173 2.434482,2.43448 3.651723,5.47759 3.651723,8.52069 0,3.65172 -1.217241,6.08621 -3.651723,8.52069 -2.434485,2.43448 -5.47759,3.65172 -8.520693,3.65172 -3.043103,0 -6.086209,-1.21724 -8.520691,-3.65172 C 6.217241,96.29312 5,93.25001 5,90.20691 c 0,-3.0431 1.217241,-6.08621 3.651723,-8.52069 2.434482,-2.43448 5.477588,-3.65173 8.520691,-3.65173 z m 0,-36.51724 c 3.651726,0 6.086208,1.21724 8.520693,3.65172 2.434482,2.43449 3.651723,5.47759 3.651723,8.52069 0,3.65173 -1.217241,6.08621 -3.651723,8.52069 -2.434485,2.43449 -5.47759,3.65173 -8.520693,3.65173 -3.043103,0 -6.086209,-1.21724 -8.520691,-3.65173 C 6.217241,59.77587 5,56.73277 5,53.68966 c 0,-3.0431 1.217241,-6.0862 3.651723,-8.52069 2.434482,-2.43448 5.477588,-3.65172 8.520691,-3.65172 z m 0,-36.51725 c 3.651726,0 6.086208,1.21725 8.520693,3.65173 2.434482,2.43448 3.651723,5.47759 3.651723,8.52069 0,3.65172 -1.217241,6.08621 -3.651723,8.52069 -2.434485,2.43448 -5.47759,3.65172 -8.520693,3.65172 -3.043103,0 -6.086209,-1.21724 -8.520691,-3.65172 C 6.217241,23.25863 5,20.21552 5,17.17242 5,14.12932 6.217241,11.08621 8.651723,8.65173 11.086205,6.21725 14.129311,5 17.172414,5 Z"
     id="path4"
     inkscape:connector-curvature="0" />
</svg>
