<?xml version="1.0" encoding="utf-8"?>
<!-- Generator: Adobe Illustrator 18.1.1, SVG Export Plug-In . SVG Version: 6.00 Build 0)  -->
<svg version="1.1" id="Calque_1" xmlns="http://www.w3.org/2000/svg" xmlns:xlink="http://www.w3.org/1999/xlink" x="0px" y="0px"
	 viewBox="0 0 30 30" enable-background="new 0 0 30 30" xml:space="preserve">
<g>
	<path fill="#E8E8E8" d="M29,30H1c-0.6,0-1-0.5-1-1V1c0-0.6,0.4-1,1-1h28c0.5,0,1,0.4,1,1v28C30,29.5,29.5,30,29,30z"/>
	<path fill="#78BB60" d="M22.6,26.4H7.8c-0.6,0-1-0.5-1-1V4.2c0-0.6,0.5-1,1-1h14.8c0.6,0,1,0.5,1,1v21.1
		C23.6,25.9,23.1,26.4,22.6,26.4z"/>
	<g>
		<rect x="8.9" y="6.2" fill="none" stroke="#FFFFFF" stroke-width="0.8" stroke-miterlimit="10" width="12.7" height="17.5"/>
		<line fill="none" stroke="#FFFFFF" stroke-width="0.8" stroke-miterlimit="10" x1="8.9" y1="19.3" x2="21.6" y2="19.3"/>
		<line fill="none" stroke="#FFFFFF" stroke-width="0.8" stroke-miterlimit="10" x1="8.9" y1="14.9" x2="21.6" y2="14.9"/>
		<line fill="none" stroke="#FFFFFF" stroke-width="0.8" stroke-miterlimit="10" x1="8.9" y1="10.5" x2="21.6" y2="10.5"/>
		<line fill="none" stroke="#FFFFFF" stroke-width="0.8" stroke-miterlimit="10" x1="18.4" y1="6.2" x2="18.4" y2="23.6"/>
		<line fill="none" stroke="#FFFFFF" stroke-width="0.8" stroke-miterlimit="10" x1="15.3" y1="6.2" x2="15.3" y2="23.6"/>
		<line fill="none" stroke="#FFFFFF" stroke-width="0.8" stroke-miterlimit="10" x1="12.1" y1="6.2" x2="12.1" y2="23.6"/>
	</g>
	<g>
		<path fill="#25A038" d="M26.5,29h-8.3c-1.4,0-2.5-1.1-2.5-2.5v-8.3c0-1.4,1.1-2.5,2.5-2.5h8.3c1.4,0,2.5,1.1,2.5,2.5v8.3
			C29,27.9,27.9,29,26.5,29z"/>
		<g>
			<path fill="#FFFFFF" d="M21.3,26.9v-3.3h-3.4v-2.3h3.4v-3.3h2.3v3.3h3.4v2.3h-3.4v3.3H21.3z"/>
		</g>
	</g>
</g>
</svg>
