<?xml version="1.0" encoding="utf-8"?>
<!-- Generator: Adobe Illustrator 18.1.1, SVG Export Plug-In . SVG Version: 6.00 Build 0)  -->
<svg version="1.1" id="Calque_1" xmlns="http://www.w3.org/2000/svg" xmlns:xlink="http://www.w3.org/1999/xlink" x="0px" y="0px"
	 viewBox="0 0 17 17" enable-background="new 0 0 17 17" xml:space="preserve">
<g>
	<polygon fill="#F6E3B3" points="7.2,0 0,0 0,6.5 0,17 12.2,17 17,17 17,10.3 17,0 	"/>
	<polygon fill="#ED6D45" stroke="#FFFFFF" stroke-width="0.2616" stroke-miterlimit="10" points="16.1,10.7 16.1,9.4 16.1,8.3 
		15.9,7.1 15.9,6.5 15.7,5.8 15.7,4.9 15.8,4.1 16,3 16.3,2.1 16.3,1 15.3,1.1 14.4,1 14,1 13.6,0.7 13.1,0.7 12.1,1 10.5,1.5 
		9.1,1.8 7.8,2 6.7,1.9 5.8,1.7 4.8,1.4 3.9,1.3 2.9,1.2 1.9,1.1 1.9,2.2 1.9,3.1 1.9,3.9 2,4.8 2.1,5.7 2.2,6.8 2.1,7.6 1.8,8.9 
		1.5,10.1 1.3,11.2 1.5,12.2 2.3,12.2 3.3,12.2 2.6,12.9 0.8,14.7 0.6,15.8 1.7,15.7 3.9,15.7 5.8,15.9 6.9,15.3 7.8,15 8.3,14.4 
		8.6,14 9.2,13.7 9.9,13.6 10.6,13.7 11.6,13.8 12.6,14.1 13.8,14.6 15,15 16,15 15.9,14.2 16.1,13.6 16.4,13.2 16.1,11.8 	"/>
	<polygon fill="#ED6D45" stroke="#FFFFFF" stroke-width="0.2616" stroke-miterlimit="10" points="1.9,1.1 2.9,1.2 3.9,1.3 4.8,1.4 
		5.8,1.7 6.7,1.9 7.8,2 9.1,1.8 10.5,1.5 12.1,1 13.1,0.7 13.6,0.7 14,1 14.4,1 15.3,1.1 16.3,1 16.3,2.1 16,3 15.8,4.1 15.7,4.9 
		15.7,5.8 15.9,6.5 15.9,7.1 16.1,8.3 16.1,9.4 16.1,10.7 16.1,11.8 16.4,13.2 16.1,13.6 15.9,14.2 16,15 15,15 13.8,14.6 
		12.6,14.1 11.6,13.8 10.6,13.7 9.9,13.6 9.2,13.7 8.6,14 8.3,14.4 7.8,15 6.9,15.3 5.8,15.9 3.9,15.7 1.7,15.7 0.6,15.8 0.8,14.7 
		2.6,12.9 3.3,12.2 2.3,12.2 1.5,12.2 1.3,11.2 1.5,10.1 1.8,8.9 2.1,7.6 2.2,6.8 2.1,5.7 2,4.8 1.9,3.9 1.9,3.1 1.9,2.2 	"/>
	<polyline fill="#ED6D45" stroke="#FFFFFF" stroke-width="0.2616" stroke-miterlimit="10" points="1.6,10 2.6,10 3.5,10 5,9.5 
		6.4,9.1 7.8,8.8 8.2,8.9 8.7,9 9.2,9.2 9.9,9.4 10.6,9.7 11.7,9.6 13,9.7 14.2,9.6 15.2,9.5 16.1,9.4 	"/>
	<polyline fill="#ED6D45" stroke="#FFFFFF" stroke-width="0.2616" stroke-miterlimit="10" points="2.3,5.7 3.2,5.6 4.3,5.5 5.2,5.3 
		6.2,5.2 7.1,5.2 8.8,5.1 10.2,4.7 11.8,4.1 12.9,3.8 13.6,2.9 14.2,3.1 15.1,3.1 16,3.1 	"/>
	<polyline fill="#ED6D45" stroke="#FFFFFF" stroke-width="0.2616" stroke-miterlimit="10" points="3.9,1.3 3.8,2.3 3.9,3.1 4,3.9 
		4,4.7 4.2,5.6 4.2,6.6 4.2,7.5 3.9,8.7 3.5,9.9 3.2,11.1 3,11.6 4.1,11.4 4.7,11.6 4.4,12.1 4.6,12.1 4.5,13 4,14.6 3.9,15.7 	"/>
	<polyline fill="#ED6D45" stroke="#FFFFFF" stroke-width="0.2616" stroke-miterlimit="10" points="5.8,1.8 5.7,2.5 5.7,3.6 5.8,4.2 
		6,4.7 6.1,5.1 6.5,6.4 6.7,7.4 6.5,8.3 6.4,9.1 6.5,10 6.6,10.9 7.8,11.9 8,13.1 7.8,14.1 7.7,14.9 	"/>
	<polyline fill="#ED6D45" stroke="#FFFFFF" stroke-width="0.2616" stroke-miterlimit="10" points="12,1 12,1.9 12.4,2.7 11.8,4.1 
		10.8,5.4 10.1,6.6 9.9,7.2 9.9,7.8 9.9,8.7 9.9,9.4 9.6,9.9 9.2,10.3 9.5,10.7 9.6,11.6 9.8,12.6 9.9,13.6 	"/>
	<polyline fill="#ED6D45" stroke="#FFFFFF" stroke-width="0.2616" stroke-miterlimit="10" points="14.5,1 14.5,2 14.1,3.1 13.7,4.2 
		13.6,5.1 13.8,5.9 13.9,6.3 14,6.9 14.2,8 14.2,8.9 14.2,9.6 14,10.8 13.9,11.4 14,12.2 13.9,13 13.8,13.7 13.8,14.6 	"/>
</g>
</svg>
