<?xml version="1.0" encoding="utf-8"?>
<!-- Generator: Adobe Illustrator 18.1.1, SVG Export Plug-In . SVG Version: 6.00 Build 0)  -->
<svg version="1.1" id="Calque_1" xmlns="http://www.w3.org/2000/svg" xmlns:xlink="http://www.w3.org/1999/xlink" x="0px" y="0px"
	 viewBox="0 0 30 30" enable-background="new 0 0 30 30" xml:space="preserve">
<g>
	<path fill="#E8E8E8" d="M29,30H1c-0.6,0-1-0.5-1-1V1c0-0.6,0.4-1,1-1h28c0.5,0,1,0.4,1,1v28C30,29.5,29.5,30,29,30z"/>
	<polyline fill="none" stroke="#78BB60" stroke-miterlimit="10" points="6.3,16.3 13,21.9 23.9,24.7 	"/>
	<polyline fill="none" stroke="#78BB60" stroke-miterlimit="10" points="12.7,6.2 22.3,11.1 17.6,16.5 	"/>
	<circle fill="#234921" cx="6.3" cy="16.3" r="1.8"/>
	<circle fill="#234921" cx="13" cy="21.9" r="1.8"/>
	<circle fill="#234921" cx="23.9" cy="24.7" r="1.8"/>
	<circle fill="#234921" cx="12.7" cy="6.2" r="1.8"/>
	<circle fill="#234921" cx="22.3" cy="11.1" r="1.8"/>
	<circle fill="#234921" cx="17.6" cy="16.5" r="1.8"/>
</g>
</svg>
