<?xml version="1.0" encoding="utf-8"?>
<!-- Generator: Adobe Illustrator 18.1.1, SVG Export Plug-In . SVG Version: 6.00 Build 0)  -->
<svg version="1.1" id="Calque_1" xmlns="http://www.w3.org/2000/svg" xmlns:xlink="http://www.w3.org/1999/xlink" x="0px" y="0px"
	 viewBox="0 0 17 17" enable-background="new 0 0 17 17" xml:space="preserve">
<g>
	<rect x="0" y="0" fill="#F6E3B3" width="17" height="17"/>
	<path fill="#4C514C" d="M7.9,12.8c0,0,0-0.1,0-0.1l1.5-3.8l0.1,0l4,2.6l0.2-1.2l-1.1-1.2l-1.1-1.2l-1.4-1.6l0,0l0.5-2.7
		c0,0,0-0.9-0.3-0.9C9.9,2.6,9.6,3.2,9.6,3.2l-1,2.8L6.8,6.7L5.2,7.3L3.8,7.8L3.4,9l4.5-0.5l-0.6,3.8c0,0.1,0,0.2-0.1,0.3l-1.6,0.6
		l-0.1,0.6L7,13.7l0.1,0l0.3,0.1l0.3,0.1L9,14.7l0.1-0.5L7.9,12.8z"/>
</g>
</svg>
