<?xml version="1.0" encoding="utf-8"?>
<!-- Generator: Adobe Illustrator 18.1.1, SVG Export Plug-In . SVG Version: 6.00 Build 0)  -->
<svg version="1.1" id="Calque_1" xmlns="http://www.w3.org/2000/svg" xmlns:xlink="http://www.w3.org/1999/xlink" x="0px" y="0px"
	 viewBox="0 0 17 17" enable-background="new 0 0 17 17" xml:space="preserve">
<g>
	<path fill="#E8E8E8" d="M16.4,17H0.6C0.3,17,0,16.7,0,16.4V0.6C0,0.3,0.3,0,0.6,0h15.9C16.7,0,17,0.3,17,0.6v15.9
		C17,16.7,16.7,17,16.4,17z"/>
	<polygon fill="#78BB60" points="5.7,2.6 4.5,7 5.5,13.2 12.9,14.1 14.2,6.9 11.2,1.3 	"/>
	<g>
		<path fill="#25A038" d="M15,16.4h-4.7C9.6,16.4,9,15.8,9,15v-4.7C9,9.6,9.6,9,10.4,9H15c0.8,0,1.4,0.6,1.4,1.4V15
			C16.4,15.8,15.8,16.4,15,16.4z"/>
		<g>
			<path fill="#FFFFFF" d="M12.1,15.2v-1.9h-1.9V12h1.9v-1.9h1.3V12h1.9v1.3h-1.9v1.9H12.1z"/>
		</g>
	</g>
	<g>
		<path fill="#25A038" d="M15,16.4h-4.7C9.6,16.4,9,15.8,9,15v-4.7C9,9.6,9.6,9,10.4,9H15c0.8,0,1.4,0.6,1.4,1.4V15
			C16.4,15.8,15.8,16.4,15,16.4z"/>
		<g>
			<path fill="#FFFFFF" d="M12.1,15.2v-1.9h-1.9V12h1.9v-1.9h1.3V12h1.9v1.3h-1.9v1.9H12.1z"/>
		</g>
	</g>
	<circle fill="#234921" cx="2.5" cy="8.1" r="1"/>
	<polyline fill="none" stroke="#234921" stroke-width="0.5667" stroke-miterlimit="10" points="14.3,2.2 8.4,5.1 2.1,12.3 	"/>
</g>
</svg>
