<?xml version="1.0" encoding="utf-8"?>
<!-- Generator: Adobe Illustrator 18.1.1, SVG Export Plug-In . SVG Version: 6.00 Build 0)  -->
<svg version="1.1" id="Calque_1" xmlns="http://www.w3.org/2000/svg" xmlns:xlink="http://www.w3.org/1999/xlink" x="0px" y="0px"
	 viewBox="0 0 30 30" enable-background="new 0 0 30 30" xml:space="preserve">
<g>
	<path fill="#E8E8E8" d="M29,30H1c-0.6,0-1-0.5-1-1V1c0-0.6,0.4-1,1-1h28c0.5,0,1,0.4,1,1v28C30,29.5,29.5,30,29,30z"/>
	<polygon fill="#78BB60" points="10,4.6 4.5,16.3 9.2,27.2 22.8,24.9 25.1,12.1 19.8,2.3 	"/>
	<circle fill="#234921" cx="10.1" cy="4.7" r="1.8"/>
	<circle fill="#234921" cx="19.2" cy="2.5" r="1.8"/>
	<circle fill="#234921" cx="4.5" cy="16.3" r="1.8"/>
	<circle fill="#234921" cx="9.2" cy="27.2" r="1.8"/>
	<circle fill="#234921" cx="24.3" cy="12.2" r="1.8"/>
	<circle fill="#234921" cx="22.2" cy="24.7" r="1.8"/>
</g>
</svg>
