<?xml version="1.0" encoding="utf-8"?>
<!-- Generator: Adobe Illustrator 18.1.1, SVG Export Plug-In . SVG Version: 6.00 Build 0)  -->
<svg version="1.1" id="Calque_1" xmlns="http://www.w3.org/2000/svg" xmlns:xlink="http://www.w3.org/1999/xlink" x="0px" y="0px"
	 viewBox="0 0 30 30" enable-background="new 0 0 30 30" xml:space="preserve">
<g>
	<path fill="#E8E8E8" d="M29,30H1c-0.6,0-1-0.5-1-1V1c0-0.6,0.4-1,1-1h28c0.5,0,1,0.4,1,1v28C30,29.5,29.5,30,29,30z"/>
	<polygon fill="#78BB60" points="10,4.6 7.9,12.3 9.7,23.2 22.8,24.9 25.1,12.1 19.8,2.3 	"/>
	<g>
		<path fill="#25A038" d="M26.5,29h-8.3c-1.4,0-2.5-1.1-2.5-2.5v-8.3c0-1.4,1.1-2.5,2.5-2.5h8.3c1.4,0,2.5,1.1,2.5,2.5v8.3
			C29,27.9,27.9,29,26.5,29z"/>
		<g>
			<path fill="#FFFFFF" d="M21.3,26.9v-3.3h-3.4v-2.3h3.4v-3.3h2.3v3.3h3.4v2.3h-3.4v3.3H21.3z"/>
		</g>
	</g>
	<g>
		<path fill="#25A038" d="M26.5,29h-8.3c-1.4,0-2.5-1.1-2.5-2.5v-8.3c0-1.4,1.1-2.5,2.5-2.5h8.3c1.4,0,2.5,1.1,2.5,2.5v8.3
			C29,27.9,27.9,29,26.5,29z"/>
		<g>
			<path fill="#FFFFFF" d="M21.3,26.9v-3.3h-3.4v-2.3h3.4v-3.3h2.3v3.3h3.4v2.3h-3.4v3.3H21.3z"/>
		</g>
	</g>
	<circle fill="#234921" cx="4.5" cy="14.2" r="1.8"/>
	<polyline fill="none" stroke="#234921" stroke-miterlimit="10" points="25.3,3.9 14.8,9.1 3.7,21.7 	"/>
</g>
</svg>
