<?xml version="1.0" encoding="utf-8"?>
<!-- Generator: Adobe Illustrator 18.1.1, SVG Export Plug-In . SVG Version: 6.00 Build 0)  -->
<svg version="1.1" id="Calque_1" xmlns="http://www.w3.org/2000/svg" xmlns:xlink="http://www.w3.org/1999/xlink" x="0px" y="0px"
	 viewBox="0 0 30 30" enable-background="new 0 0 30 30" xml:space="preserve">
<g>
	<path fill="#E8E8E8" d="M29,30H1c-0.6,0-1-0.5-1-1V1c0-0.6,0.4-1,1-1h28c0.5,0,1,0.4,1,1v28C30,29.5,29.5,30,29,30z"/>
	<path fill="#87A4C6" d="M25.8,16.4c0.4,0,0.8,0.1,1.2,0.1c0-0.3,0-0.5,0-0.8c0-3.3-2.4-6.2-5.5-6.9c-1-3-3.8-5.1-7.2-5.1
		c-4.2,0-7.6,3.4-7.6,7.9c-2.5,0.5-4.4,2.7-4.4,5.4c0,3.1,2.3,5.7,5.4,5.7h12.3c0.3,0,0.5,0,0.8,0c-0.1-0.4-0.1-0.8-0.1-1.2
		C20.8,18.7,23.1,16.4,25.8,16.4z"/>
	<g>
		<path fill="#25A038" d="M26.5,29h-8.3c-1.4,0-2.5-1.1-2.5-2.5v-8.3c0-1.4,1.1-2.5,2.5-2.5h8.3c1.4,0,2.5,1.1,2.5,2.5v8.3
			C29,27.9,27.9,29,26.5,29z"/>
		<g>
			<path fill="#FFFFFF" d="M21.3,26.9v-3.3h-3.4v-2.3h3.4v-3.3h2.3v3.3h3.4v2.3h-3.4v3.3H21.3z"/>
		</g>
	</g>
</g>
</svg>
