<?xml version="1.0" encoding="utf-8"?>
<!-- Generator: Adobe Illustrator 18.1.1, SVG Export Plug-In . SVG Version: 6.00 Build 0)  -->
<svg version="1.1" id="Calque_1" xmlns="http://www.w3.org/2000/svg" xmlns:xlink="http://www.w3.org/1999/xlink" x="0px" y="0px"
	 viewBox="0 0 17 17" enable-background="new 0 0 17 17" xml:space="preserve">
<path opacity="0" fill="#E8E8E8" d="M16.4,17H0.6C0.3,17,0,16.7,0,16.4V0.6C0,0.3,0.3,0,0.6,0h15.9C16.7,0,17,0.3,17,0.6v15.9
	C17,16.7,16.7,17,16.4,17z"/>
<path fill="#CDCCCC" d="M15.6,8.2C15.4,8,12.4,4,8.5,4S1.6,8,1.4,8.2c-0.1,0.2-0.1,0.4,0,0.6C1.6,9,4.6,13,8.5,13s6.9-4,7.1-4.2
	C15.7,8.6,15.7,8.4,15.6,8.2z M6.6,5.2c-0.8,0.7-1.4,2-1.4,3.3s0.5,2.6,1.4,3.3c-2.2-0.8-3.9-2.6-4.5-3.3C2.8,7.8,4.5,5.9,6.6,5.2z
	 M10.4,11.8c0.8-0.7,1.3-1.9,1.3-3.3s-0.5-2.6-1.3-3.3c2.1,0.8,3.8,2.6,4.4,3.3C14.2,9.2,12.5,11,10.4,11.8z"/>
</svg>
